<?xml version="1.0" encoding="UTF-8" standalone="no"?>
<svg
   xmlns:dc="http://purl.org/dc/elements/1.1/"
   xmlns:cc="http://creativecommons.org/ns#"
   xmlns:rdf="http://www.w3.org/1999/02/22-rdf-syntax-ns#"
   xmlns:svg="http://www.w3.org/2000/svg"
   xmlns="http://www.w3.org/2000/svg"
   viewBox="0 0 401.33334 544"
   height="544"
   width="401.33334"
   xml:space="preserve"
   id="svg2"
   version="1.1"><metadata
     id="metadata8"><rdf:RDF><cc:Work
         rdf:about=""><dc:format>image/svg+xml</dc:format><dc:type
           rdf:resource="http://purl.org/dc/dcmitype/StillImage" /></cc:Work></rdf:RDF></metadata><defs
     id="defs6" /><g
     transform="matrix(1.3333333,0,0,-1.3333333,0,544)"
     id="g10"><g
       transform="scale(0.1)"
       id="g12"><path
         id="path14"
         style="fill:#000000;fill-opacity:1;fill-rule:evenodd;stroke:none"
         d="M 8.67969,1536.86 H 3004.08 V 5.03125 H 8.67969 V 1536.86" /><path
         id="path16"
         style="fill:#469ede;fill-opacity:1;fill-rule:evenodd;stroke:none"
         d="M 536.094,4073.87 H 1072.4 c 31.5,0 57.27,-25.77 57.27,-57.27 v -536.31 c 0,-31.49 -25.77,-57.27 -57.27,-57.27 H 536.094 c -31.496,0 -57.266,25.78 -57.266,57.27 v 536.31 c 0,31.5 25.77,57.27 57.266,57.27" /><path
         id="path18"
         style="fill:#ffffff;fill-opacity:1;fill-rule:nonzero;stroke:none"
         d="m 621.117,3594.53 v -24.22 h -26.965 v 24.22 h -12.879 v -60.11 h 12.879 v 24.22 h 26.965 v -24.22 H 634 v 60.11 z m 25.762,0 v -60.11 h 12.879 v 60.11 z m 22.5,-30.06 c 0,-22.07 16.234,-31.25 33.062,-31.25 6.704,0 13.571,1.45 19.582,4.03 v 29.8 h -12.281 v -21.47 c -1.801,-0.69 -4.035,-1.11 -6.613,-1.11 -8.844,0 -20.609,4.03 -20.609,20 0,14.09 10.562,19.76 21.296,19.76 6.098,0 12.196,-1.63 16.743,-4.64 v 12.28 c -5.579,2.49 -12.02,3.86 -18.461,3.86 -16.485,0 -32.719,-9.44 -32.719,-31.26 z m 103.394,30.06 v -24.22 h -26.968 v 24.22 h -12.879 v -60.11 h 12.879 v 24.22 h 26.968 v -24.22 h 12.879 v 60.11 z m 41.653,-30.4 c 0,-14.77 23.269,-11.85 23.269,-18.46 0,-2.32 -2.832,-3.09 -7.215,-3.09 -4.976,0 -11.246,1.46 -15.71,4.38 v -9.88 c 4.203,-2.49 10.132,-3.86 16.398,-3.86 9.875,0 18.719,3 18.719,12.71 0,15.11 -23.27,11.68 -23.27,18.54 0,2.49 3.094,3.27 5.754,3.27 4.891,0 10.906,-1.8 14.426,-4.21 v 9.79 c -4.207,2.06 -9.359,3.52 -15.199,3.52 -8.672,0 -17.172,-3.18 -17.172,-12.71 z m 45.855,23.53 v -12.02 h -6.957 v -10.05 h 6.957 v -18.46 c 0,-10.22 6.871,-13.91 14.86,-13.91 4.113,0 7.894,0.68 11.078,1.8 v 9.62 c -2.406,-0.95 -4.731,-1.38 -7.481,-1.38 -4.457,0 -6.609,1.89 -6.609,6.19 v 16.14 h 13.055 v 10.05 h -13.055 v 14.85 z m 69.645,-42.59 v 13.13 c 0,13.57 -7.903,18.64 -20.266,18.64 -6.359,0 -12.625,-1.63 -15.972,-2.75 v -10.3 c 3.863,1.54 8.929,3.09 14.597,3.09 6.442,0 9.703,-2.83 9.703,-6.95 v -1.47 c -2.922,0.69 -6.527,1.12 -9.793,1.12 -8.238,0 -18.113,-3.26 -18.113,-13.74 0,-8.16 6.691,-12.62 14.426,-12.62 6.094,0 10.816,1.89 14.855,5.06 1.719,-3.09 4.895,-4.63 9.102,-4.63 2.32,0 4.719,0.51 6.609,1.2 v 7.81 c -0.769,-0.26 -1.543,-0.34 -2.234,-0.34 -1.543,0 -2.914,0.6 -2.914,2.75 z m -18.981,7.38 c 2.493,0 5.239,-0.51 7.043,-0.94 v -6.44 c -2.746,-2.41 -5.925,-3.35 -9.273,-3.35 -3.606,0 -6.442,1.97 -6.442,5.06 0,4.22 4.293,5.67 8.672,5.67 z m 71.793,-18.03 -15.371,20.87 14.168,20.35 h -13.398 l -10.473,-15.37 h -4.984 v 34.26 h -11.934 v -60.11 h 11.934 v 16.31 h 4.812 l 11.852,-16.31 z m 0.684,20.61 c 0,-14.34 10.82,-21.81 23.868,-21.81 6.19,0 11.25,0.94 15.12,2.57 v 9.36 c -3.52,-1.54 -7.73,-2.49 -12.45,-2.49 -6.78,0 -13.14,2.49 -14.515,8.5 h 29.025 c 2.75,12.2 -2.75,25.68 -19.84,25.68 -9.267,0 -21.208,-6.27 -21.208,-21.81 z m 30.318,3.86 h -18.377 c 0.168,5.67 4.633,8.85 9.707,8.85 7.47,0 9.1,-6.02 8.67,-8.85" /><path
         id="path20"
         style="fill:#ffffff;fill-opacity:1;fill-rule:nonzero;stroke:none"
         d="m 827.801,3636.34 h -21.293 c -11.469,0 -20.824,9.36 -20.824,20.83 v 90.03 H 664.566 c -11.468,0 -20.82,9.35 -20.82,20.82 v 25.63 h 141.938 v 88.47 c 0,11.47 9.355,20.83 20.824,20.83 h 21.293 z m 198.179,50.77 c 0,-16.06 -5.2,-29 -15.6,-38.81 -4.99,-4.59 -10.583,-8.01 -16.798,-10.29 -6.191,-2.28 -13.012,-3.42 -20.402,-3.42 H 857.766 v 11.32 c 0,11.47 9.355,20.82 20.824,20.82 h 94.59 c 3.402,0 6.582,0.42 9.508,1.25 2.882,0.83 5.558,2.06 8.015,3.71 2.738,1.99 4.805,4.33 6.164,7.01 1.36,2.67 2.043,5.72 2.043,9.13 0,3.4 -0.695,6.39 -2.078,8.97 -1.383,2.59 -3.492,4.81 -6.285,6.64 -2.395,1.59 -5.039,2.78 -7.902,3.57 -2.883,0.79 -6.043,1.19 -9.465,1.19 h -70.246 c -6.661,0 -12.813,1.03 -18.426,3.06 -5.637,2.04 -10.731,5.11 -15.246,9.18 -4.856,4.44 -8.504,9.59 -10.922,15.44 -2.41,5.83 -3.629,12.35 -3.629,19.55 0,7.12 1.219,13.59 3.633,19.38 2.426,5.8 6.062,10.92 10.906,15.35 4.535,4.09 9.621,7.16 15.258,9.2 5.613,2.03 11.765,3.05 18.426,3.05 h 114.106 v -11.32 c 0,-11.46 -9.36,-20.82 -20.825,-20.82 h -93.281 c -2.282,0 -4.379,-0.35 -6.286,-1.03 -1.886,-0.68 -3.636,-1.72 -5.21,-3.1 -1.54,-1.35 -2.7,-2.93 -3.465,-4.72 -0.778,-1.82 -1.168,-3.9 -1.168,-6.23 0,-2.41 0.39,-4.54 1.168,-6.35 0.754,-1.78 1.902,-3.31 3.429,-4.57 1.575,-1.3 3.328,-2.29 5.231,-2.94 1.922,-0.66 4.023,-0.99 6.301,-0.99 h 70.246 c 7.41,0 14.226,-1.18 20.422,-3.54 6.211,-2.36 11.808,-5.93 16.788,-10.66 5.19,-4.98 9.1,-10.75 11.7,-17.28 2.59,-6.51 3.89,-13.77 3.89,-21.75 z m -422.171,-50.77 h -21.297 v 266.61 h 21.297 c 11.468,0 20.824,-9.36 20.824,-20.83 v -224.95 c 0,-11.47 -9.356,-20.83 -20.824,-20.83" /><path
         id="path22"
         style="fill:#ffffff;fill-opacity:1;fill-rule:nonzero;stroke:none"
         d="m 948.961,3982.51 c 0,-13.03 6.18,-23.53 20.602,-23.53 14.425,0 20.609,10.5 20.609,23.53 0,13.03 -6.184,23.53 -20.609,23.53 -14.422,0 -20.602,-10.5 -20.602,-23.53 z m 31.234,0 c 0,-9.63 -3.32,-14.75 -10.632,-14.75 -7.313,0 -10.633,5.12 -10.633,14.75 0,9.63 3.32,14.76 10.633,14.76 7.312,0 10.632,-5.13 10.632,-14.76 z m 27.195,22.6 -10.972,-4.19 v -8.97 l 8.512,3.19 v -26.66 h -8.512 v -8.57 h 25.792 v 8.57 h -7.58 v 36.63 z m 20.67,-11.57 c 0,-4.59 2.26,-7.58 5.38,-9.7 -4.25,-2.53 -7.05,-6.85 -7.05,-11.37 0,-6.91 5.72,-13.49 19.22,-13.49 13.62,0 19.07,6.51 19.07,13.16 0,5.45 -3.25,8.64 -7.38,10.7 3.66,2.73 5.79,6.05 5.72,10.44 -0.07,6.31 -6.05,12.76 -17.54,12.76 -12.37,0 -17.42,-6.45 -17.42,-12.5 z m 18.55,-15.02 c 4.45,-1.53 8.17,-2.79 8.17,-6.64 0,-3.06 -3.66,-5.06 -8.44,-5.06 -6.85,0 -9.91,2.99 -9.97,6.85 -0.07,2.33 1.06,5.05 3.52,7.11 2.32,-0.86 4.72,-1.53 6.72,-2.26 z m 6.84,14.03 c 0.06,-2.2 -1.07,-4.85 -3.19,-6.98 -1.46,0.39 -2.86,0.86 -4.19,1.19 -4.45,1.47 -8.51,2.73 -8.51,6.71 0,2.53 2.73,4.73 7.51,4.73 5.59,0 8.38,-2.53 8.38,-5.65" /><path
         id="path24"
         style="fill:#469ede;fill-opacity:1;fill-rule:nonzero;stroke:none"
         d="m 1634.43,3750.42 v -51.58 H 1577 v 51.58 h -27.43 V 3622.39 H 1577 v 51.58 h 57.43 v -51.58 h 27.43 v 128.03 z m 54.86,0 v -128.03 h 27.43 v 128.03 z m 47.92,-64.02 c 0,-47 34.57,-66.57 70.42,-66.57 14.27,0 28.89,3.1 41.69,8.59 v 63.47 h -26.15 v -45.73 c -3.83,-1.46 -8.59,-2.37 -14.08,-2.37 -18.84,0 -43.89,8.59 -43.89,42.61 0,29.99 22.49,42.07 45.35,42.07 12.99,0 25.97,-3.47 35.66,-9.88 v 26.15 c -11.89,5.31 -25.6,8.23 -39.32,8.23 -35.11,0 -69.68,-20.11 -69.68,-66.57 z m 220.2,64.02 v -51.58 h -57.44 v 51.58 h -27.43 v -128.03 h 27.43 v 51.58 h 57.44 v -51.58 h 27.43 v 128.03 z m 88.7,-64.75 c 0,-31.46 49.57,-25.24 49.57,-39.32 0,-4.94 -6.04,-6.58 -15.37,-6.58 -10.6,0 -23.95,3.1 -33.46,9.32 v -21.04 c 8.95,-5.29 21.57,-8.22 34.92,-8.22 21.03,0 39.87,6.4 39.87,27.06 0,32.19 -49.56,24.88 -49.56,39.51 0,5.31 6.59,6.95 12.25,6.95 10.42,0 23.23,-3.83 30.72,-8.96 v 20.85 c -8.96,4.39 -19.93,7.5 -32.36,7.5 -18.47,0 -36.58,-6.77 -36.58,-27.07 z m 97.66,50.12 v -25.61 h -14.81 v -21.4 h 14.81 v -39.33 c 0,-21.76 14.64,-29.62 31.64,-29.62 8.77,0 16.82,1.46 23.6,3.83 v 20.5 c -5.13,-2.02 -10.07,-2.93 -15.92,-2.93 -9.5,0 -14.09,4.02 -14.09,13.17 v 34.38 h 27.81 v 21.4 H 2169 v 31.64 z m 148.33,-90.73 v 27.99 c 0,28.89 -16.83,39.69 -43.17,39.69 -13.53,0 -26.88,-3.48 -34.01,-5.85 v -21.95 c 8.22,3.29 19.01,6.58 31.09,6.58 13.71,0 20.66,-6.03 20.66,-14.81 v -3.1 c -6.22,1.46 -13.9,2.37 -20.85,2.37 -17.55,0 -38.59,-6.96 -38.59,-29.27 0,-17.37 14.26,-26.88 30.73,-26.88 12.98,0 23.04,4.03 31.64,10.79 3.66,-6.59 10.42,-9.87 19.38,-9.87 4.95,0 10.06,1.1 14.08,2.55 v 16.65 c -1.64,-0.55 -3.29,-0.73 -4.75,-0.73 -3.3,0 -6.21,1.28 -6.21,5.84 z m -40.43,15.74 c 5.31,0 11.15,-1.1 15,-2.01 v -13.73 c -5.85,-5.11 -12.62,-7.13 -19.76,-7.13 -7.66,0 -13.71,4.21 -13.71,10.79 0,8.98 9.15,12.08 18.47,12.08 z m 152.9,-38.41 -32.73,44.44 30.16,43.35 h -28.52 l -22.31,-32.74 h -10.61 v 72.98 h -25.42 v -128.03 h 25.42 v 34.75 h 10.24 l 25.24,-34.75 z m 1.46,43.9 c 0,-30.55 23.04,-46.46 50.84,-46.46 13.17,0 23.95,2.02 32.19,5.49 v 19.93 c -7.51,-3.29 -16.46,-5.3 -26.52,-5.3 -14.45,0 -27.98,5.3 -30.91,18.11 h 61.81 c 5.86,25.97 -5.84,54.68 -42.24,54.68 -19.75,0 -45.17,-13.36 -45.17,-46.45 z m 64.56,8.22 h -39.14 c 0.37,12.08 9.87,18.84 20.67,18.84 15.91,0 19.38,-12.81 18.47,-18.84" /><path
         id="path26"
         style="fill:#469ede;fill-opacity:1;fill-rule:nonzero;stroke:none"
         d="m 2375.18,3844.79 c 0,-17.87 8.48,-32.28 28.27,-32.28 19.78,0 28.27,14.41 28.27,32.28 0,17.87 -8.49,32.28 -28.27,32.28 -19.79,0 -28.27,-14.41 -28.27,-32.28 z m 42.86,0 c 0,-13.22 -4.56,-20.24 -14.59,-20.24 -10.04,0 -14.59,7.02 -14.59,20.24 0,13.22 4.55,20.24 14.59,20.24 10.03,0 14.59,-7.02 14.59,-20.24 z m 37.3,31.01 -15.05,-5.75 v -12.31 l 11.67,4.38 v -36.57 h -11.67 v -11.76 h 35.38 v 11.76 h -10.4 v 50.25 z m 28.35,-15.87 c 0,-6.3 3.1,-10.39 7.39,-13.32 -5.84,-3.46 -9.67,-9.39 -9.67,-15.59 0,-9.48 7.84,-18.51 26.35,-18.51 18.69,0 26.17,8.94 26.17,18.06 0,7.47 -4.46,11.85 -10.12,14.68 5.01,3.73 7.93,8.29 7.84,14.31 -0.09,8.66 -8.3,17.51 -24.07,17.51 -16.96,0 -23.89,-8.85 -23.89,-17.14 z m 25.44,-20.61 c 6.11,-2.1 11.21,-3.82 11.21,-9.12 0,-4.19 -5.01,-6.93 -11.57,-6.93 -9.39,0 -13.59,4.11 -13.68,9.39 -0.09,3.2 1.46,6.93 4.83,9.76 3.19,-1.19 6.48,-2.1 9.21,-3.1 z m 9.39,19.24 c 0.09,-3.01 -1.46,-6.65 -4.38,-9.58 -2,0.56 -3.91,1.19 -5.74,1.65 -6.11,2 -11.67,3.73 -11.67,9.2 0,3.47 3.74,6.48 10.31,6.48 7.65,0 11.48,-3.46 11.48,-7.75" /><path
         id="path28"
         style="fill:#000000;fill-opacity:1;fill-rule:evenodd;stroke:none"
         d="M 536.094,2738.87 H 1072.4 c 31.5,0 57.27,-25.77 57.27,-57.27 v -536.31 c 0,-31.49 -25.77,-57.26 -57.27,-57.26 H 536.094 c -31.496,0 -57.266,25.77 -57.266,57.26 v 536.31 c 0,31.5 25.77,57.27 57.266,57.27 z m 85.023,-479.33 v -24.22 h -26.965 v 24.22 h -12.879 v -60.12 h 12.879 v 24.22 h 26.965 v -24.22 H 634 v 60.12 z m 25.762,0 v -60.12 h 12.879 v 60.12 z m 22.5,-30.07 c 0,-22.06 16.234,-31.25 33.062,-31.25 6.704,0 13.571,1.46 19.582,4.03 v 29.8 h -12.281 v -21.47 c -1.801,-0.69 -4.035,-1.11 -6.613,-1.11 -8.844,0 -20.613,4.03 -20.613,20 0,14.09 10.566,19.76 21.304,19.76 6.094,0 12.192,-1.63 16.739,-4.64 v 12.28 c -5.579,2.49 -12.02,3.86 -18.457,3.86 -16.489,0 -32.723,-9.44 -32.723,-31.26 z m 103.394,30.07 v -24.22 h -26.968 v 24.22 h -12.879 v -60.12 h 12.879 v 24.22 h 26.968 v -24.22 h 12.879 v 60.12 z m 41.653,-30.41 c 0,-14.77 23.269,-11.84 23.269,-18.46 0,-2.32 -2.832,-3.09 -7.215,-3.09 -4.976,0 -11.246,1.46 -15.714,4.38 v -9.88 c 4.207,-2.49 10.132,-3.86 16.402,-3.86 9.875,0 18.719,3 18.719,12.71 0,15.11 -23.27,11.68 -23.27,18.54 0,2.5 3.094,3.27 5.754,3.27 4.891,0 10.906,-1.8 14.426,-4.21 v 9.79 c -4.207,2.06 -9.359,3.52 -15.195,3.52 -8.672,0 -17.176,-3.18 -17.176,-12.71 z m 45.855,23.53 v -12.02 h -6.957 v -10.05 h 6.957 v -18.46 c 0,-10.22 6.871,-13.91 14.856,-13.91 4.117,0 7.898,0.68 11.082,1.8 v 9.62 c -2.406,-0.95 -4.727,-1.38 -7.477,-1.38 -4.465,0 -6.613,1.9 -6.613,6.19 v 16.14 h 13.055 v 10.05 h -13.055 v 14.86 z m 69.645,-42.59 v 13.14 c 0,13.56 -7.903,18.63 -20.266,18.63 -6.359,0 -12.625,-1.63 -15.972,-2.75 v -10.3 c 3.863,1.54 8.929,3.09 14.597,3.09 6.442,0 9.707,-2.83 9.707,-6.95 v -1.47 c -2.926,0.7 -6.531,1.12 -9.797,1.12 -8.242,0 -18.113,-3.26 -18.113,-13.74 0,-8.16 6.691,-12.62 14.426,-12.62 6.094,0 10.816,1.89 14.855,5.06 1.719,-3.09 4.891,-4.63 9.098,-4.63 2.324,0 4.727,0.51 6.613,1.2 v 7.81 c -0.765,-0.25 -1.547,-0.34 -2.234,-0.34 -1.543,0 -2.914,0.6 -2.914,2.75 z m -18.981,7.38 c 2.493,0 5.239,-0.51 7.047,-0.94 v -6.44 c -2.75,-2.41 -5.929,-3.35 -9.277,-3.35 -3.606,0 -6.442,1.97 -6.442,5.07 0,4.21 4.293,5.66 8.672,5.66 z m 71.793,-18.03 -15.371,20.87 14.168,20.35 h -13.398 l -10.473,-15.37 h -4.984 v 34.27 h -11.934 v -60.12 h 11.934 v 16.31 h 4.816 l 11.848,-16.31 z m 0.688,20.61 c 0,-14.34 10.816,-21.81 23.864,-21.81 6.19,0 11.25,0.94 15.12,2.57 v 9.37 c -3.52,-1.55 -7.73,-2.5 -12.45,-2.5 -6.78,0 -13.14,2.5 -14.515,8.51 h 29.025 c 2.75,12.19 -2.75,25.67 -19.84,25.67 -9.267,0 -21.204,-6.27 -21.204,-21.81 z m 30.314,3.86 h -18.377 c 0.172,5.67 4.633,8.85 9.707,8.85 7.47,0 9.1,-6.01 8.67,-8.85 z m -185.939,77.45 h -21.293 c -11.469,0 -20.828,9.36 -20.828,20.83 v 90.03 H 664.566 c -11.468,0 -20.82,9.35 -20.82,20.82 v 25.63 H 785.68 v 88.47 c 0,11.47 9.359,20.83 20.828,20.83 h 21.293 z m 198.179,50.77 c 0,-16.06 -5.2,-29 -15.6,-38.81 -4.99,-4.59 -10.583,-8.01 -16.802,-10.29 -6.187,-2.28 -13.008,-3.42 -20.398,-3.42 H 857.766 v 11.32 c 0,11.47 9.355,20.82 20.824,20.82 h 94.59 c 3.402,0 6.578,0.43 9.508,1.25 2.882,0.83 5.558,2.06 8.015,3.71 2.738,1.99 4.805,4.33 6.164,7.01 1.36,2.67 2.043,5.72 2.043,9.13 0,3.4 -0.691,6.39 -2.078,8.97 -1.383,2.59 -3.492,4.81 -6.285,6.65 -2.395,1.58 -5.039,2.77 -7.902,3.56 -2.879,0.79 -6.043,1.19 -9.465,1.19 h -70.246 c -6.661,0 -12.813,1.03 -18.426,3.06 -5.637,2.04 -10.727,5.11 -15.246,9.18 -4.856,4.44 -8.504,9.59 -10.922,15.43 -2.41,5.84 -3.629,12.36 -3.629,19.56 0,7.12 1.219,13.59 3.633,19.38 2.426,5.8 6.062,10.93 10.906,15.35 4.535,4.09 9.621,7.16 15.258,9.2 5.613,2.03 11.765,3.05 18.426,3.05 h 114.106 v -11.32 c 0,-11.46 -9.36,-20.82 -20.825,-20.82 h -93.281 c -2.282,0 -4.379,-0.35 -6.282,-1.03 -1.89,-0.69 -3.644,-1.72 -5.214,-3.1 -1.54,-1.35 -2.704,-2.93 -3.465,-4.72 -0.778,-1.82 -1.168,-3.9 -1.168,-6.23 0,-2.4 0.39,-4.53 1.168,-6.35 0.754,-1.78 1.902,-3.31 3.429,-4.57 1.575,-1.3 3.325,-2.29 5.231,-2.94 1.922,-0.66 4.027,-0.99 6.301,-0.99 h 70.246 c 7.41,0 14.23,-1.18 20.422,-3.54 6.211,-2.37 11.808,-5.93 16.788,-10.66 5.19,-4.98 9.1,-10.75 11.7,-17.28 2.59,-6.51 3.89,-13.77 3.89,-21.75 z m -422.171,-50.77 h -21.297 v 266.61 h 21.297 c 11.468,0 20.824,-9.36 20.824,-20.83 v -224.95 c 0,-11.47 -9.356,-20.83 -20.824,-20.83 z m 345.152,346.17 c 0,-13.03 6.18,-23.53 20.605,-23.53 14.422,0 20.606,10.5 20.606,23.53 0,13.03 -6.184,23.53 -20.606,23.53 -14.425,0 -20.605,-10.5 -20.605,-23.53 z m 31.234,0 c 0,-9.63 -3.32,-14.75 -10.629,-14.75 -7.316,0 -10.636,5.12 -10.636,14.75 0,9.64 3.32,14.76 10.636,14.76 7.309,0 10.629,-5.12 10.629,-14.76 z m 27.195,22.6 -10.972,-4.19 v -8.97 l 8.512,3.19 v -26.66 h -8.512 v -8.57 h 25.792 v 8.57 h -7.58 v 36.63 z m 20.67,-11.57 c 0,-4.59 2.26,-7.57 5.38,-9.7 -4.25,-2.53 -7.05,-6.85 -7.05,-11.37 0,-6.91 5.72,-13.49 19.22,-13.49 13.62,0 19.07,6.51 19.07,13.16 0,5.45 -3.25,8.64 -7.38,10.7 3.66,2.73 5.79,6.05 5.72,10.44 -0.07,6.31 -6.05,12.76 -17.54,12.76 -12.37,0 -17.42,-6.45 -17.42,-12.5 z m 18.55,-15.02 c 4.44,-1.53 8.17,-2.79 8.17,-6.64 0,-3.06 -3.66,-5.06 -8.44,-5.06 -6.85,0 -9.91,2.99 -9.97,6.85 -0.07,2.33 1.06,5.05 3.52,7.11 2.32,-0.86 4.72,-1.53 6.72,-2.26 z m 6.84,14.03 c 0.06,-2.2 -1.07,-4.85 -3.19,-6.98 -1.46,0.4 -2.86,0.86 -4.19,1.2 -4.45,1.46 -8.51,2.72 -8.51,6.7 0,2.53 2.73,4.73 7.52,4.73 5.58,0 8.37,-2.53 8.37,-5.65" /><path
         id="path30"
         style="fill:#000000;fill-opacity:1;fill-rule:nonzero;stroke:none"
         d="m 1634.43,2415.42 v -51.58 H 1577 v 51.58 h -27.43 V 2287.39 H 1577 v 51.58 h 57.43 v -51.58 h 27.43 v 128.03 z m 54.86,0 v -128.03 h 27.43 v 128.03 z m 47.92,-64.02 c 0,-47 34.57,-66.57 70.42,-66.57 14.27,0 28.89,3.1 41.69,8.59 v 63.47 h -26.15 v -45.73 c -3.83,-1.46 -8.59,-2.37 -14.08,-2.37 -18.84,0 -43.89,8.59 -43.89,42.61 0,29.99 22.49,42.07 45.35,42.07 12.99,0 25.97,-3.47 35.66,-9.88 v 26.16 c -11.89,5.3 -25.6,8.22 -39.32,8.22 -35.11,0 -69.68,-20.11 -69.68,-66.57 z m 220.2,64.02 v -51.58 h -57.44 v 51.58 h -27.43 v -128.03 h 27.43 v 51.58 h 57.44 v -51.58 h 27.43 v 128.03 z m 88.7,-64.75 c 0,-31.46 49.57,-25.24 49.57,-39.32 0,-4.94 -6.04,-6.58 -15.37,-6.58 -10.6,0 -23.95,3.1 -33.46,9.32 v -21.04 c 8.95,-5.29 21.57,-8.22 34.92,-8.22 21.03,0 39.87,6.4 39.87,27.06 0,32.19 -49.56,24.88 -49.56,39.51 0,5.31 6.59,6.95 12.25,6.95 10.42,0 23.23,-3.83 30.72,-8.96 v 20.85 c -8.96,4.39 -19.93,7.5 -32.36,7.5 -18.47,0 -36.58,-6.77 -36.58,-27.07 z m 97.66,50.12 v -25.61 h -14.81 v -21.4 h 14.81 v -39.33 c 0,-21.76 14.64,-29.62 31.64,-29.62 8.77,0 16.82,1.46 23.6,3.83 v 20.5 c -5.13,-2.02 -10.07,-2.93 -15.92,-2.93 -9.5,0 -14.09,4.02 -14.09,13.17 v 34.38 h 27.81 v 21.4 H 2169 v 31.64 z m 148.33,-90.73 v 27.99 c 0,28.9 -16.83,39.69 -43.17,39.69 -13.53,0 -26.88,-3.48 -34.01,-5.85 v -21.95 c 8.22,3.29 19.01,6.58 31.09,6.58 13.71,0 20.66,-6.03 20.66,-14.81 v -3.1 c -6.22,1.46 -13.9,2.37 -20.85,2.37 -17.55,0 -38.59,-6.95 -38.59,-29.26 0,-17.38 14.26,-26.89 30.73,-26.89 12.98,0 23.04,4.03 31.64,10.79 3.66,-6.59 10.42,-9.87 19.38,-9.87 4.95,0 10.06,1.1 14.08,2.55 v 16.65 c -1.64,-0.55 -3.29,-0.73 -4.75,-0.73 -3.3,0 -6.21,1.28 -6.21,5.84 z m -40.43,15.74 c 5.31,0 11.15,-1.1 15,-2.01 v -13.73 c -5.85,-5.11 -12.62,-7.13 -19.76,-7.13 -7.66,0 -13.71,4.21 -13.71,10.79 0,8.98 9.15,12.08 18.47,12.08 z m 152.9,-38.41 -32.73,44.44 30.16,43.35 h -28.52 l -22.31,-32.74 h -10.61 v 72.98 h -25.42 v -128.03 h 25.42 v 34.75 h 10.24 l 25.24,-34.75 z m 1.46,43.9 c 0,-30.55 23.04,-46.46 50.84,-46.46 13.17,0 23.95,2.02 32.19,5.49 v 19.93 c -7.51,-3.29 -16.46,-5.3 -26.52,-5.3 -14.45,0 -27.98,5.3 -30.91,18.11 h 61.81 c 5.86,25.97 -5.84,54.68 -42.24,54.68 -19.75,0 -45.17,-13.36 -45.17,-46.45 z m 64.56,8.22 h -39.14 c 0.37,12.08 9.87,18.84 20.67,18.84 15.91,0 19.38,-12.8 18.47,-18.84" /><path
         id="path32"
         style="fill:#000000;fill-opacity:1;fill-rule:nonzero;stroke:none"
         d="m 2375.18,2509.79 c 0,-17.87 8.48,-32.28 28.27,-32.28 19.78,0 28.27,14.41 28.27,32.28 0,17.87 -8.49,32.28 -28.27,32.28 -19.79,0 -28.27,-14.41 -28.27,-32.28 z m 42.86,0 c 0,-13.22 -4.56,-20.24 -14.59,-20.24 -10.04,0 -14.59,7.02 -14.59,20.24 0,13.23 4.55,20.24 14.59,20.24 10.03,0 14.59,-7.01 14.59,-20.24 z m 37.3,31.01 -15.05,-5.75 v -12.31 l 11.67,4.38 v -36.57 h -11.67 v -11.76 h 35.38 v 11.76 h -10.4 v 50.25 z m 28.35,-15.87 c 0,-6.3 3.1,-10.39 7.39,-13.32 -5.84,-3.46 -9.67,-9.39 -9.67,-15.59 0,-9.48 7.84,-18.51 26.35,-18.51 18.69,0 26.17,8.94 26.17,18.06 0,7.47 -4.46,11.85 -10.12,14.68 5.01,3.73 7.93,8.29 7.84,14.31 -0.09,8.66 -8.3,17.51 -24.07,17.51 -16.96,0 -23.89,-8.85 -23.89,-17.14 z m 25.44,-20.61 c 6.11,-2.1 11.21,-3.82 11.21,-9.12 0,-4.19 -5.01,-6.92 -11.57,-6.92 -9.39,0 -13.59,4.1 -13.68,9.39 -0.09,3.19 1.46,6.92 4.83,9.75 3.19,-1.19 6.48,-2.1 9.21,-3.1 z m 9.39,19.24 c 0.09,-3.01 -1.46,-6.65 -4.38,-9.58 -2,0.56 -3.91,1.19 -5.74,1.65 -6.11,2 -11.67,3.73 -11.67,9.2 0,3.47 3.74,6.48 10.31,6.48 7.65,0 11.48,-3.46 11.48,-7.75" /><path
         id="path34"
         style="fill:#ffffff;fill-opacity:1;fill-rule:evenodd;stroke:none"
         d="M 536.094,1096.36 H 1072.4 c 31.5,0 57.27,-25.77 57.27,-57.26 V 502.789 c 0,-31.496 -25.77,-57.266 -57.27,-57.266 H 536.094 c -31.496,0 -57.266,25.77 -57.266,57.266 V 1039.1 c 0,31.49 25.77,57.26 57.266,57.26 z m 85.023,-479.329 v -24.215 h -26.965 v 24.215 h -12.879 v -60.113 h 12.879 v 24.219 h 26.965 V 556.918 H 634 v 60.113 z m 25.762,0 v -60.113 h 12.879 v 60.113 z m 22.5,-30.058 c 0,-22.071 16.234,-31.258 33.062,-31.258 6.704,0 13.571,1.457 19.582,4.035 v 29.797 h -12.281 v -21.465 c -1.801,-0.691 -4.035,-1.117 -6.613,-1.117 -8.844,0 -20.613,4.035 -20.613,20.008 0,14.082 10.566,19.754 21.304,19.754 6.094,0 12.192,-1.633 16.739,-4.637 v 12.277 c -5.579,2.496 -12.02,3.863 -18.457,3.863 -16.489,0 -32.723,-9.445 -32.723,-31.257 z m 103.394,30.058 v -24.215 h -26.968 v 24.215 h -12.879 v -60.113 h 12.879 v 24.219 h 26.968 v -24.219 h 12.879 v 60.113 z m 41.653,-30.402 c 0,-14.77 23.269,-11.848 23.269,-18.461 0,-2.32 -2.832,-3.094 -7.215,-3.094 -4.976,0 -11.246,1.457 -15.714,4.383 v -9.879 c 4.207,-2.488 10.132,-3.863 16.402,-3.863 9.875,0 18.719,3.008 18.719,12.707 0,15.113 -23.27,11.683 -23.27,18.551 0,2.496 3.094,3.265 5.754,3.265 4.891,0 10.906,-1.8 14.426,-4.207 v 9.785 c -4.207,2.067 -9.359,3.524 -15.195,3.524 -8.672,0 -17.176,-3.176 -17.176,-12.711 z m 45.855,23.531 v -12.019 h -6.957 V 588.09 h 6.957 v -18.465 c 0,-10.219 6.871,-13.91 14.856,-13.91 4.117,0 7.898,0.687 11.082,1.801 v 9.621 c -2.406,-0.946 -4.727,-1.375 -7.477,-1.375 -4.465,0 -6.613,1.89 -6.613,6.183 v 16.145 h 13.055 v 10.051 h -13.055 v 14.851 z m 69.645,-42.594 v 13.141 c 0,13.566 -7.903,18.633 -20.266,18.633 -6.359,0 -12.625,-1.633 -15.972,-2.75 v -10.305 c 3.863,1.543 8.929,3.094 14.597,3.094 6.442,0 9.707,-2.832 9.707,-6.953 v -1.461 c -2.926,0.687 -6.531,1.113 -9.797,1.113 -8.242,0 -18.113,-3.262 -18.113,-13.738 0,-8.156 6.691,-12.625 14.426,-12.625 6.094,0 10.816,1.89 14.855,5.066 1.719,-3.093 4.891,-4.633 9.098,-4.633 2.324,0 4.727,0.516 6.613,1.2 v 7.816 c -0.765,-0.262 -1.547,-0.344 -2.234,-0.344 -1.543,0 -2.914,0.598 -2.914,2.746 z m -18.981,7.387 c 2.493,0 5.239,-0.515 7.047,-0.941 v -6.446 c -2.75,-2.402 -5.929,-3.347 -9.277,-3.347 -3.606,0 -6.442,1.972 -6.442,5.062 0,4.215 4.293,5.672 8.672,5.672 z m 71.793,-18.035 -15.371,20.867 14.168,20.356 h -13.398 l -10.473,-15.375 h -4.984 v 34.265 h -11.934 v -60.113 h 11.934 v 16.316 h 4.816 l 11.848,-16.316 z m 0.688,20.609 c 0,-14.343 10.816,-21.812 23.864,-21.812 6.19,0 11.25,0.949 15.12,2.578 v 9.359 c -3.52,-1.543 -7.73,-2.488 -12.45,-2.488 -6.78,0 -13.14,2.488 -14.515,8.5 h 29.025 c 2.75,12.195 -2.75,25.676 -19.84,25.676 -9.267,0 -21.204,-6.274 -21.204,-21.813 z m 30.314,3.864 h -18.377 c 0.172,5.672 4.633,8.847 9.707,8.847 7.47,0 9.1,-6.015 8.67,-8.847 z m -185.939,77.453 h -21.293 c -11.469,0 -20.828,9.355 -20.828,20.824 v 90.027 H 664.566 c -11.468,0 -20.82,9.356 -20.82,20.825 v 25.628 H 785.68 v 88.473 c 0,11.469 9.359,20.824 20.828,20.824 h 21.293 z m 198.179,50.761 c 0,-16.058 -5.2,-28.996 -15.6,-38.808 -4.99,-4.582 -10.583,-8.012 -16.802,-10.285 -6.187,-2.285 -13.008,-3.422 -20.398,-3.422 H 857.766 v 11.316 c 0,11.469 9.355,20.824 20.824,20.824 h 94.59 c 3.402,0 6.578,0.422 9.508,1.254 2.882,0.821 5.558,2.059 8.015,3.704 2.738,1.988 4.805,4.335 6.164,7.011 1.36,2.668 2.043,5.719 2.043,9.125 0,3.403 -0.691,6.395 -2.078,8.969 -1.383,2.594 -3.492,4.816 -6.285,6.652 -2.395,1.582 -5.039,2.774 -7.902,3.563 -2.879,0.793 -6.043,1.195 -9.465,1.195 h -70.246 c -6.661,0 -12.813,1.024 -18.426,3.059 -5.637,2.043 -10.727,5.105 -15.246,9.179 -4.856,4.438 -8.504,9.586 -10.922,15.43 -2.41,5.836 -3.629,12.363 -3.629,19.555 0,7.121 1.219,13.594 3.633,19.383 2.426,5.804 6.062,10.929 10.906,15.351 4.535,4.086 9.621,7.153 15.258,9.195 5.613,2.036 11.765,3.055 18.426,3.055 h 114.106 v -11.316 c 0,-11.469 -9.36,-20.824 -20.825,-20.824 h -93.281 c -2.282,0 -4.379,-0.348 -6.282,-1.032 -1.89,-0.683 -3.644,-1.718 -5.214,-3.097 -1.54,-1.348 -2.704,-2.926 -3.465,-4.723 -0.778,-1.82 -1.168,-3.898 -1.168,-6.23 0,-2.407 0.39,-4.536 1.168,-6.352 0.754,-1.773 1.902,-3.309 3.429,-4.566 1.575,-1.301 3.325,-2.29 5.231,-2.938 1.922,-0.664 4.027,-0.992 6.301,-0.992 h 70.246 c 7.41,0 14.23,-1.18 20.422,-3.547 6.211,-2.359 11.808,-5.922 16.788,-10.652 5.19,-4.981 9.1,-10.758 11.7,-17.278 2.59,-6.519 3.89,-13.773 3.89,-21.758 z M 603.809,658.844 h -21.297 v 266.601 h 21.297 c 11.468,0 20.824,-9.355 20.824,-20.824 V 679.668 c 0,-11.469 -9.356,-20.824 -20.824,-20.824 z m 345.152,346.166 c 0,-13.03 6.18,-23.533 20.605,-23.533 14.422,0 20.606,10.503 20.606,23.533 0,13.03 -6.184,23.53 -20.606,23.53 -14.425,0 -20.605,-10.5 -20.605,-23.53 z m 31.234,0 c 0,-9.639 -3.32,-14.752 -10.629,-14.752 -7.316,0 -10.636,5.113 -10.636,14.752 0,9.64 3.32,14.76 10.636,14.76 7.309,0 10.629,-5.12 10.629,-14.76 z m 27.195,22.6 -10.972,-4.19 v -8.97 l 8.512,3.19 v -26.656 h -8.512 v -8.574 h 25.792 v 8.574 h -7.58 v 36.626 z m 20.67,-11.57 c 0,-4.59 2.26,-7.58 5.38,-9.7 -4.25,-2.53 -7.05,-6.848 -7.05,-11.367 0,-6.914 5.72,-13.496 19.22,-13.496 13.62,0 19.07,6.515 19.07,13.16 0,5.453 -3.25,8.643 -7.38,10.703 3.66,2.73 5.79,6.05 5.72,10.44 -0.07,6.31 -6.05,12.76 -17.54,12.76 -12.37,0 -17.42,-6.45 -17.42,-12.5 z m 18.55,-15.02 c 4.44,-1.528 8.17,-2.79 8.17,-6.645 0,-3.059 -3.66,-5.051 -8.44,-5.051 -6.85,0 -9.91,2.989 -9.97,6.844 -0.07,2.328 1.06,5.052 3.52,7.112 2.32,-0.86 4.72,-1.53 6.72,-2.26 z m 6.84,14.03 c 0.06,-2.2 -1.07,-4.85 -3.19,-6.98 -1.46,0.39 -2.86,0.86 -4.19,1.19 -4.45,1.47 -8.51,2.72 -8.51,6.71 0,2.53 2.73,4.73 7.52,4.73 5.58,0 8.37,-2.53 8.37,-5.65" /><path
         id="path36"
         style="fill:#ffffff;fill-opacity:1;fill-rule:nonzero;stroke:none"
         d="M 1634.43,772.918 V 721.34 H 1577 v 51.578 h -27.43 V 644.887 H 1577 v 51.582 h 57.43 v -51.582 h 27.43 v 128.031 z m 54.86,0 V 644.887 h 27.43 v 128.031 z m 47.92,-64.02 c 0,-47 34.57,-66.57 70.42,-66.57 14.27,0 28.89,3.106 41.69,8.594 v 63.465 h -26.15 v -45.723 c -3.83,-1.469 -8.59,-2.375 -14.08,-2.375 -18.84,0 -43.89,8.594 -43.89,42.609 0,29.993 22.49,42.067 45.35,42.067 12.99,0 25.97,-3.473 35.66,-9.879 v 26.156 c -11.89,5.309 -25.6,8.227 -39.32,8.227 -35.11,0 -69.68,-20.114 -69.68,-66.571 z m 220.2,64.02 V 721.34 h -57.44 v 51.578 h -27.43 V 644.887 h 27.43 v 51.582 h 57.44 v -51.582 h 27.43 v 128.031 z m 88.7,-64.75 c 0,-31.457 49.57,-25.234 49.57,-39.316 0,-4.946 -6.04,-6.586 -15.37,-6.586 -10.6,0 -23.95,3.101 -33.46,9.324 v -21.035 c 8.95,-5.297 21.57,-8.227 34.92,-8.227 21.03,0 39.87,6.399 39.87,27.067 0,32.187 -49.56,24.878 -49.56,39.503 0,5.313 6.59,6.954 12.25,6.954 10.42,0 23.23,-3.836 30.72,-8.961 v 20.847 c -8.96,4.391 -19.93,7.504 -32.36,7.504 -18.47,0 -36.58,-6.773 -36.58,-27.074 z m 97.66,50.113 v -25.597 h -14.81 v -21.403 h 14.81 v -39.328 c 0,-21.765 14.64,-29.625 31.64,-29.625 8.77,0 16.82,1.465 23.6,3.836 v 20.492 c -5.13,-2.019 -10.07,-2.929 -15.92,-2.929 -9.5,0 -14.09,4.027 -14.09,13.171 v 34.383 h 27.81 v 21.403 H 2169 v 31.632 z m 148.33,-90.718 v 27.988 c 0,28.89 -16.83,39.691 -43.17,39.691 -13.53,0 -26.88,-3.48 -34.01,-5.851 v -21.957 c 8.22,3.296 19.01,6.589 31.09,6.589 13.71,0 20.66,-6.031 20.66,-14.816 v -3.102 c -6.22,1.461 -13.9,2.372 -20.85,2.372 -17.55,0 -38.59,-6.954 -38.59,-29.262 0,-17.371 14.26,-26.887 30.73,-26.887 12.98,0 23.04,4.027 31.64,10.789 3.66,-6.586 10.42,-9.867 19.38,-9.867 4.95,0 10.06,1.098 14.08,2.547 v 16.656 c -1.64,-0.555 -3.29,-0.734 -4.75,-0.734 -3.3,0 -6.21,1.277 -6.21,5.844 z m -40.43,15.734 c 5.31,0 11.15,-1.098 15,-2.008 v -13.726 c -5.85,-5.11 -12.62,-7.129 -19.76,-7.129 -7.66,0 -13.71,4.203 -13.71,10.789 0,8.972 9.15,12.074 18.47,12.074 z m 152.9,-38.41 -32.73,44.441 30.16,43.356 h -28.52 l -22.31,-32.743 h -10.61 v 72.977 h -25.42 V 644.887 h 25.42 v 34.75 h 10.24 l 25.24,-34.75 z m 1.46,43.898 c 0,-30.547 23.04,-46.457 50.84,-46.457 13.17,0 23.95,2.02 32.19,5.488 v 19.938 c -7.51,-3.297 -16.46,-5.301 -26.52,-5.301 -14.45,0 -27.98,5.301 -30.91,18.106 h 61.81 c 5.86,25.964 -5.84,54.683 -42.24,54.683 -19.75,0 -45.17,-13.359 -45.17,-46.457 z m 64.56,8.227 h -39.14 c 0.37,12.074 9.87,18.84 20.67,18.84 15.91,0 19.38,-12.809 18.47,-18.84" /><path
         id="path38"
         style="fill:#ffffff;fill-opacity:1;fill-rule:nonzero;stroke:none"
         d="m 2375.18,867.293 c 0,-17.875 8.48,-32.281 28.27,-32.281 19.78,0 28.27,14.406 28.27,32.281 0,17.867 -8.49,32.27 -28.27,32.27 -19.79,0 -28.27,-14.403 -28.27,-32.27 z m 42.86,0 c 0,-13.219 -4.56,-20.242 -14.59,-20.242 -10.04,0 -14.59,7.023 -14.59,20.242 0,13.219 4.55,20.238 14.59,20.238 10.03,0 14.59,-7.019 14.59,-20.238 z m 37.3,31 -15.05,-5.746 v -12.305 l 11.67,4.375 v -36.562 h -11.67 v -11.766 h 35.38 v 11.766 h -10.4 v 50.238 z m 28.35,-15.867 c 0,-6.293 3.1,-10.391 7.39,-13.313 -5.84,-3.461 -9.67,-9.394 -9.67,-15.59 0,-9.484 7.84,-18.511 26.35,-18.511 18.69,0 26.17,8.933 26.17,18.054 0,7.477 -4.46,11.856 -10.12,14.684 5.01,3.734 7.93,8.289 7.84,14.309 -0.09,8.664 -8.3,17.504 -24.07,17.504 -16.96,0 -23.89,-8.84 -23.89,-17.137 z m 25.44,-20.606 c 6.11,-2.101 11.21,-3.824 11.21,-9.117 0,-4.195 -5.01,-6.93 -11.57,-6.93 -9.39,0 -13.59,4.098 -13.68,9.391 -0.09,3.191 1.46,6.93 4.83,9.758 3.19,-1.188 6.48,-2.102 9.21,-3.102 z m 9.39,19.243 c 0.09,-3.016 -1.46,-6.661 -4.38,-9.579 -2,0.551 -3.91,1.184 -5.74,1.641 -6.11,2.008 -11.67,3.738 -11.67,9.207 0,3.465 3.74,6.477 10.31,6.477 7.65,0 11.48,-3.465 11.48,-7.746" /></g></g></svg>